<mxfile host="app.diagrams.net" agent="Mozilla/5.0 (Macintosh; Intel Mac OS X 10_15_7) AppleWebKit/537.36 (KHTML, like Gecko) Chrome/126.0.0.0 Whale/3.27.254.15 Safari/537.36" version="25.0.3">
  <diagram name="페이지-1" id="wIO3oZFtxyOlvSoCHIZe">
    <mxGraphModel dx="524" dy="995" grid="1" gridSize="10" guides="1" tooltips="1" connect="1" arrows="1" fold="1" page="1" pageScale="1" pageWidth="1169" pageHeight="827" math="0" shadow="0">
      <root>
        <mxCell id="0" />
        <mxCell id="1" parent="0" />
        <mxCell id="GWsmnFPYYR6MpKC78p7a-9" style="edgeStyle=orthogonalEdgeStyle;rounded=0;orthogonalLoop=1;jettySize=auto;html=1;entryX=0;entryY=0.5;entryDx=0;entryDy=0;fontColor=#00994D;strokeColor=#00994D;" parent="1" source="GWsmnFPYYR6MpKC78p7a-1" target="GWsmnFPYYR6MpKC78p7a-8" edge="1">
          <mxGeometry relative="1" as="geometry" />
        </mxCell>
        <mxCell id="GWsmnFPYYR6MpKC78p7a-1" value="sweather ?" style="ellipse;whiteSpace=wrap;html=1;" parent="1" vertex="1">
          <mxGeometry x="200" y="240" width="120" height="80" as="geometry" />
        </mxCell>
        <mxCell id="GWsmnFPYYR6MpKC78p7a-2" value="wind speed" style="text;html=1;align=center;verticalAlign=middle;whiteSpace=wrap;rounded=0;fillColor=none;strokeColor=none;fontColor=#D79B00;" parent="1" vertex="1">
          <mxGeometry x="50" y="170" width="70" height="30" as="geometry" />
        </mxCell>
        <mxCell id="GWsmnFPYYR6MpKC78p7a-3" style="rounded=0;orthogonalLoop=1;jettySize=auto;html=1;entryX=0;entryY=0;entryDx=0;entryDy=0;fillColor=#dae8fc;strokeColor=#D79B00;fontColor=#D79B00;" parent="1" source="GWsmnFPYYR6MpKC78p7a-2" target="GWsmnFPYYR6MpKC78p7a-1" edge="1">
          <mxGeometry relative="1" as="geometry" />
        </mxCell>
        <mxCell id="GWsmnFPYYR6MpKC78p7a-5" style="edgeStyle=orthogonalEdgeStyle;rounded=0;orthogonalLoop=1;jettySize=auto;html=1;entryX=0;entryY=0.5;entryDx=0;entryDy=0;fillColor=#dae8fc;strokeColor=#EA6B66;" parent="1" source="GWsmnFPYYR6MpKC78p7a-4" target="GWsmnFPYYR6MpKC78p7a-1" edge="1">
          <mxGeometry relative="1" as="geometry" />
        </mxCell>
        <mxCell id="GWsmnFPYYR6MpKC78p7a-4" value="temperature" style="text;html=1;align=center;verticalAlign=middle;whiteSpace=wrap;rounded=0;fillColor=none;strokeColor=none;fontColor=#EA6B66;" parent="1" vertex="1">
          <mxGeometry x="50" y="265" width="70" height="30" as="geometry" />
        </mxCell>
        <mxCell id="GWsmnFPYYR6MpKC78p7a-7" style="rounded=0;orthogonalLoop=1;jettySize=auto;html=1;entryX=0;entryY=1;entryDx=0;entryDy=0;fillColor=#dae8fc;strokeColor=#6c8ebf;" parent="1" source="GWsmnFPYYR6MpKC78p7a-6" target="GWsmnFPYYR6MpKC78p7a-1" edge="1">
          <mxGeometry relative="1" as="geometry" />
        </mxCell>
        <mxCell id="GWsmnFPYYR6MpKC78p7a-6" value="number of people outdoors" style="text;html=1;align=center;verticalAlign=middle;whiteSpace=wrap;rounded=0;fillColor=none;strokeColor=none;fontColor=#004C99;" parent="1" vertex="1">
          <mxGeometry x="60" y="360" width="60" height="30" as="geometry" />
        </mxCell>
        <mxCell id="GWsmnFPYYR6MpKC78p7a-8" value="&lt;font color=&quot;#00994d&quot;&gt;yes or no&lt;/font&gt;" style="text;html=1;align=center;verticalAlign=middle;whiteSpace=wrap;rounded=0;fillColor=none;strokeColor=none;fontColor=#004C99;" parent="1" vertex="1">
          <mxGeometry x="400" y="265" width="60" height="30" as="geometry" />
        </mxCell>
      </root>
    </mxGraphModel>
  </diagram>
</mxfile>
